# xmcd CD database file
#
# Track frame offsets:
#	150
#	9892
#	19525
#	34403
#	49433
#	65056
#	82011
#	99983
#	114993
#	131191
#	146637
#	159255
#	170947
#	182275
#	188576
#	204026
#	222868
#	233035
#	247925
#
# Disc length: 3461 seconds
#
# Revision: 0
# Processed by: cddbd v1.5PL3 Copyright (c) Steve Scherf et al.
# Submitted via: CDex 1.51
#
DISCID=fa0d8313
DTITLE=Rough'n Ready - Don't Shoot At Me
DYEAR=1992
DGENRE=Country
TTITLE0=Honky Tonk Man
TTITLE1=Don't Shoot At Me
TTITLE2=She's In Love With A Rodeo Man
TTITLE3=Mistery Train
TTITLE4=Checkout Time At Eleven
TTITLE5=Brain Cloudy Blues
TTITLE6=Truck Drivin' Man
TTITLE7=Rough and Ready
TTITLE8=The Metro Cowboy
TTITLE9=Big River
TTITLE10=Big Mon - Don't Shoot At Me
TTITLE11=Amanda
TTITLE12=Truck Drivin' Man
TTITLE13=Foggy Mountain Breakdown
TTITLE14=The Metrocowboy (Demo)
TTITLE15=(Ghost) Riders In The Sky (Demo)
TTITLE16=Don't Shoot At Me (Demo)
TTITLE17=Rough and Ready (Demo)
TTITLE18=You Win Again (Demo)
EXTD=YEAR: 1992
EXTT0=
EXTT1=
EXTT2=
EXTT3=
EXTT4=
EXTT5=
EXTT6=
EXTT7=
EXTT8=
EXTT9=
EXTT10=
EXTT11=
EXTT12=
EXTT13=
EXTT14=
EXTT15=
EXTT16=
EXTT17=
EXTT18=
PLAYORDER=
